<svg width="169" height="72" viewBox="0 0 169 72" fill="none" xmlns="http://www.w3.org/2000/svg">
<g clip-path="url(#clip0_67_908)">
<path d="M94.0591 22.698V24.84H87.0391V13.5H93.9781V15.642H89.2801V18.054H93.5731V20.16H89.2801V22.707H94.0591V22.698Z" fill="#5D2333"/>
<path d="M104.859 21.546C104.859 23.49 103.284 24.84 101.322 24.84H96.5073V13.5H100.98C102.888 13.5 104.427 14.796 104.427 16.695C104.427 17.667 104.022 18.432 103.356 18.963C104.265 19.485 104.85 20.376 104.85 21.555L104.859 21.546ZM98.7573 15.588V18.081H100.989C101.682 18.081 102.204 17.55 102.204 16.83C102.204 16.11 101.7 15.579 100.989 15.579H98.7573V15.588ZM102.645 21.402C102.645 20.637 102.096 20.07 101.331 20.07H98.7573V22.743H101.331C102.096 22.743 102.645 22.176 102.645 21.393V21.402Z" fill="#5D2333"/>
<path d="M106.47 19.1704C106.47 15.8494 108.936 13.2754 112.365 13.2754C114.435 13.2754 116.271 14.3284 117.243 15.9484L115.317 17.0644C114.768 16.0564 113.661 15.4444 112.365 15.4444C110.142 15.4444 108.684 16.9834 108.684 19.1704C108.684 21.3574 110.142 22.8784 112.365 22.8784C113.661 22.8784 114.777 22.2664 115.317 21.2764L117.243 22.3924C116.289 24.0124 114.453 25.0654 112.365 25.0654C108.927 25.0654 106.47 22.4734 106.47 19.1704Z" fill="#5D2333"/>
<path d="M88.7042 31.7521V35.4331H93.5192V36.8551H88.7042V41.6701H87.2012V30.3301H93.7352V31.7521H88.7132H88.7042Z" fill="#5D2333"/>
<path d="M97.4791 30.3223V41.6623H95.9761V30.3223H97.4791Z" fill="#5D2333"/>
<path d="M109.125 30.3223V41.6623H107.91L102.078 33.1843V41.6623H100.575V30.3223H101.79L107.622 38.7823V30.3223H109.125Z" fill="#5D2333"/>
<path d="M118.638 39.1231H113.535L112.608 41.6701H111.006L115.236 30.3301H116.937L121.167 41.6701H119.565L118.638 39.1231ZM118.125 37.7101L116.082 32.1211L114.057 37.7101H118.125Z" fill="#5D2333"/>
<path d="M131.616 30.3223V41.6623H130.401L124.569 33.1843V41.6623H123.066V30.3223H124.281L130.113 38.7823V30.3223H131.616Z" fill="#5D2333"/>
<path d="M134.1 36.0012C134.1 32.7252 136.566 30.1152 140.031 30.1152C142.119 30.1152 143.973 31.2042 144.927 32.8692L143.613 33.6342C142.965 32.3832 141.588 31.5732 140.031 31.5732C137.376 31.5732 135.594 33.4992 135.594 36.0012C135.594 38.5032 137.376 40.4112 140.031 40.4112C141.588 40.4112 142.965 39.6012 143.613 38.3682L144.927 39.1152C143.991 40.7802 142.137 41.8872 140.031 41.8872C136.566 41.8872 134.1 39.2592 134.1 36.0012Z" fill="#5D2333"/>
<path d="M148.725 30.3223V41.6623H147.222V30.3223H148.725Z" fill="#5D2333"/>
<path d="M158.22 39.1231H153.117L152.19 41.6701H150.588L154.818 30.3301H156.519L160.749 41.6701H159.147L158.22 39.1231ZM157.698 37.7101L155.655 32.1211L153.63 37.7101H157.698Z" fill="#5D2333"/>
<path d="M169.038 40.2403V41.6623H162.639V30.3223H164.142V40.2403H169.038Z" fill="#5D2333"/>
<path d="M98.1361 53.5603C98.1361 56.4403 95.9941 58.7173 92.5741 58.7173C89.1541 58.7173 86.5981 56.0713 86.5981 52.8313C86.5981 49.5913 89.0911 46.9453 92.5471 46.9453C94.6711 46.9453 96.5161 48.0613 97.4611 49.6813L96.1651 50.4463C95.5171 49.2313 94.1401 48.4033 92.5381 48.4033C89.9101 48.4033 88.1011 50.3473 88.1011 52.8313C88.1011 55.3153 89.9011 57.2413 92.6011 57.2413C94.9501 57.2413 96.3451 55.9453 96.6331 54.2443H92.4661V52.8853H98.1361V53.5693V53.5603Z" fill="#5D2333"/>
<path d="M104.742 54.1532H102.069V58.5002H100.566V47.1602H105.102C107.046 47.1602 108.639 48.7352 108.639 50.6792C108.639 52.1732 107.649 53.4782 106.29 53.9642L108.963 58.5002H107.298L104.751 54.1532H104.742ZM102.069 52.7942H105.102C106.218 52.7942 107.127 51.8402 107.127 50.6702C107.127 49.5002 106.218 48.5642 105.102 48.5642H102.069V52.7942Z" fill="#5D2333"/>
<path d="M110.367 52.8313C110.367 49.5553 112.941 46.9453 116.235 46.9453C119.529 46.9453 122.121 49.5553 122.121 52.8313C122.121 56.1073 119.529 58.7173 116.235 58.7173C112.941 58.7173 110.367 56.0893 110.367 52.8313ZM120.609 52.8313C120.609 50.3383 118.71 48.4033 116.235 48.4033C113.76 48.4033 111.861 50.3293 111.861 52.8313C111.861 55.3333 113.76 57.2413 116.235 57.2413C118.71 57.2413 120.609 55.3153 120.609 52.8313Z" fill="#5D2333"/>
<path d="M124.461 54.6932V47.1602H125.964V54.6302C125.964 56.2052 126.9 57.2402 128.718 57.2402C130.536 57.2402 131.472 56.2052 131.472 54.6302V47.1602H132.966V54.6932C132.966 57.1592 131.202 58.7162 128.718 58.7162C126.234 58.7162 124.452 57.1592 124.452 54.6932H124.461Z" fill="#5D2333"/>
<path d="M143.775 50.8052C143.775 52.8662 142.2 54.4502 140.112 54.4502H137.502V58.5002H135.999V47.1602H140.112C142.2 47.1602 143.775 48.7352 143.775 50.8052ZM142.281 50.8052C142.281 49.5092 141.354 48.5732 140.112 48.5732H137.502V53.0462H140.112C141.363 53.0462 142.281 52.0922 142.281 50.8052Z" fill="#5D2333"/>
<path d="M64.953 51.3C59.445 61.677 48.537 68.76 36 68.76C17.937 68.76 3.24 54.063 3.24 36C3.24 17.937 17.937 3.24 36 3.24C48.537 3.24 59.454 10.323 64.953 20.7H68.589C62.838 8.469 50.409 0 36 0C16.119 0 0 16.119 0 36C0 55.881 16.119 72 36 72C50.409 72 62.838 63.531 68.589 51.3H64.953Z" fill="#5D2333"/>
<path d="M65.736 37.1078L63.189 36.1628V35.8298L65.736 34.8848C66.546 34.5878 67.185 33.9488 67.482 33.1388L68.427 30.5918H68.76L69.705 33.1388C70.002 33.9488 70.641 34.5878 71.451 34.8848L73.998 35.8298V36.1628L71.451 37.1078C70.641 37.4048 70.002 38.0438 69.705 38.8538L68.76 41.4008H68.427L67.482 38.8538C67.185 38.0438 66.546 37.4048 65.736 37.1078Z" fill="#5D2333"/>
<path d="M51.9571 37.9002L50.0581 36.0012L52.0651 33.9942C54.4051 31.8342 55.8721 28.7472 55.8721 25.3092C55.8721 18.7842 50.5801 13.4922 44.0551 13.4922H27.0721V20.6922H16.1011V51.2922H24.7951V48.0522H19.3411V37.6122H32.9671V34.3722H30.3121V16.7322H44.0551C48.7801 16.7322 52.6321 20.5752 52.6321 25.3092C52.6321 27.5862 51.7591 29.6922 50.1751 31.3032L50.0581 31.4292C49.9951 31.4922 49.9411 31.5552 49.8781 31.6182L49.8331 31.6632L49.7881 31.7082L47.7811 33.7152L44.3161 37.1802L42.8761 38.6202L40.2571 36.0012L42.8761 33.3822L44.1811 34.6962L46.4761 32.4012L45.1711 31.0872L42.8761 28.7922L40.5811 31.0782L37.9621 33.6972L35.6671 35.9922L37.9621 38.2872L42.8671 43.1922L47.7721 38.2872L49.6711 40.1862L49.7341 40.2492L49.7971 40.3032C51.6061 41.9322 52.6411 44.2542 52.6411 46.6752C52.6411 51.4002 48.7981 55.2522 44.0641 55.2522H30.3211V51.2922H38.8621V48.0522H30.3211V39.8622H27.0811V58.4922H44.0641C50.5891 58.4922 55.8811 53.2002 55.8811 46.6752C55.8811 43.1922 54.3691 40.0512 51.9661 37.8912L51.9571 37.9002ZM27.0721 34.3812H19.3411V23.9412H27.0721V34.3812Z" fill="#5D2333"/>
<path d="M38.8622 20.6992H33.0122V23.9392H38.8622V20.6992Z" fill="#5D2333"/>
</g>
<defs>
<clipPath id="clip0_67_908">
<rect width="168.588" height="72" fill="white"/>
</clipPath>
</defs>
</svg>
