<?xml version="1.0" encoding="UTF-8"?><svg id="a" xmlns="http://www.w3.org/2000/svg" viewBox="0 0 260 34"><defs><style>.b{fill:#939598;}.c{fill:#0de3d6;}.d{fill:#0d0f3b;}</style></defs><g><polygon class="d" points="4.14 15.29 4.14 19.32 12.13 21.22 8.17 27 11.06 29.91 15.95 24.99 19.69 21.22 19.77 21.14 19.8 21.11 23.55 17.34 19.8 13.58 19.77 13.54 19.69 13.46 15.87 9.62 11.03 4.75 8.14 7.66 12.06 13.38 4.14 15.29"/><polygon class="d" points="29.89 15.29 29.89 19.32 21.89 21.22 25.85 27 22.96 29.91 18.08 24.99 14.34 21.22 14.26 21.14 14.22 21.11 10.48 17.34 14.22 13.58 14.26 13.54 14.34 13.46 18.15 9.62 22.99 4.75 25.88 7.66 21.97 13.38 29.89 15.29"/><rect class="c" x="15.45" y=".85" width="3.39" height="3.41"/><rect class="c" x="15.45" y="29.91" width="3.39" height="3.41"/></g><g><path class="d" d="M45.52,11.6c-1.01,0-1.68,.37-1.68,1.11,0,2.68,8.47,1.16,8.47,6.98,0,3.3-2.89,4.99-6.48,4.99-2.69,0-5.49-.99-7.42-2.59l1.63-3.3c1.65,1.43,4.16,2.45,5.83,2.45,1.24,0,2.02-.46,2.02-1.32,0-2.75-8.47-1.09-8.47-6.82,0-3.03,2.55-4.95,6.43-4.95,2.37,0,4.75,.74,6.43,1.83l-1.58,3.35c-1.7-.97-3.86-1.73-5.19-1.73"/><polygon class="d" points="59.94 8.34 59.94 11.83 64.72 11.83 64.72 24.54 68.92 24.54 68.92 11.83 73.75 11.83 73.75 8.34 59.94 8.34"/><path class="d" d="M87.87,12.66l2.21,5.78h-4.46l2.25-5.78Zm-2.04-4.32l-6.91,16.2h4.32l1.13-2.87h6.96l1.1,2.87h4.48l-6.75-16.2h-4.32Z"/><path class="d" d="M114.9,24.54l-2.34-4.48h-3.12v4.48h-4.2V8.34h7.23c4.27,0,6.71,2.08,6.71,5.68,0,2.45-1.01,4.25-2.87,5.22l3.35,5.29h-4.75Zm-5.47-7.86h3.05c1.7,0,2.69-.88,2.69-2.52s-.99-2.45-2.69-2.45h-3.05v4.97Z"/><polygon class="b" points="127.44 8.36 127.44 10.07 132.68 10.07 132.68 24.54 134.51 24.54 134.51 10.07 139.77 10.07 139.77 8.36 127.44 8.36"/><path class="b" d="M159.85,24.54l-3.38-5.18c-.32,.02-.67,.05-1.03,.05h-4.27v5.13h-1.84V8.36h6.11c4.02,0,6.34,1.99,6.34,5.43,0,2.66-1.31,4.48-3.63,5.22l3.79,5.52h-2.09Zm-4.41-6.84c2.92,0,4.57-1.32,4.57-3.86s-1.65-3.77-4.57-3.77h-4.27v7.63h4.27Z"/><path class="b" d="M178.59,10.37l3.65,8.32h-7.26l3.61-8.32Zm-.9-2.01l-7.21,16.18h1.95l1.79-4.14h8.75l1.81,4.14h2l-7.19-16.18h-1.91Z"/><path class="b" d="M210.97,16.45c0,4.6-3.61,8.09-8.34,8.09h-6.43V8.36h6.5c4.69,0,8.27,3.49,8.27,8.09m-1.86,.02c0-3.65-2.85-6.4-6.45-6.4h-4.62v12.76h4.68c3.58,0,6.39-2.73,6.39-6.35"/><polygon class="b" points="221.21 8.36 221.21 24.54 232.42 24.54 232.42 22.83 223.05 22.83 223.05 17.19 231.15 17.19 231.15 15.5 223.05 15.5 223.05 10.07 232.12 10.07 232.12 8.36 221.21 8.36"/><path class="b" d="M253.57,24.54l-3.38-5.18c-.32,.02-.67,.05-1.03,.05h-4.27v5.13h-1.84V8.36h6.11c4.02,0,6.34,1.99,6.34,5.43,0,2.66-1.31,4.48-3.63,5.22l3.79,5.52h-2.09Zm-4.41-6.84c2.92,0,4.57-1.32,4.57-3.86s-1.65-3.77-4.57-3.77h-4.27v7.63h4.27Z"/></g></svg>