<svg width="297" height="32" viewBox="0 0 297 32" fill="none" xmlns="http://www.w3.org/2000/svg">
<path d="M180.139 1.57727H179.232V30.4225H180.139V1.57727Z" fill="#031F45"/>
<path d="M152.637 13.3059C154.451 13.3059 156.093 13.8592 157.616 14.9568C157.907 15.1564 157.925 15.3831 157.68 15.6553L157.145 16.3537C157 16.5623 156.782 16.5805 156.51 16.39C155.285 15.5283 153.952 15.0838 152.528 15.0838C151.43 15.0838 150.568 15.3468 149.915 15.882C149.244 16.4172 148.918 17.1066 148.918 17.9502C148.918 18.9752 149.634 19.8097 150.514 20.2632C152.918 21.4969 156.002 21.3427 158.034 23.302C158.406 23.6557 158.732 24.0821 158.886 24.5719C159.041 25.0345 159.113 25.5243 159.113 26.0142C159.113 27.4836 158.587 28.6719 157.535 29.6062C156.474 30.5405 154.922 30.994 152.9 30.994C150.024 30.994 147.838 29.9963 146.341 28.0097C146.214 27.7648 146.26 27.5562 146.487 27.3929L147.221 26.885C147.466 26.7398 147.675 26.767 147.856 26.9847C149.126 28.4542 150.841 29.189 152.999 29.189C155.594 29.189 157.081 28.0279 157.081 26.1502C157.081 25.2522 156.755 24.5991 156.12 24.1728C154.859 23.3292 153.317 23.0571 151.893 22.6035C150.559 22.1772 149.108 21.8325 148.092 20.7984C146.868 19.5466 146.604 17.5511 147.385 15.9909C147.657 15.4466 148.056 14.984 148.518 14.603C149.543 13.7413 150.931 13.315 152.646 13.315L152.637 13.3059Z" fill="#031F45"/>
<path d="M140.064 8.83398C140.355 8.83398 140.509 8.97912 140.509 9.27846V13.8502H143.412C143.656 13.8502 143.793 13.9681 143.802 14.1949V15.1836C143.802 15.4738 143.675 15.628 143.412 15.628H140.509V24.8803C140.509 27.3748 141.715 28.6538 144.119 28.7354C144.427 28.7354 144.591 28.8805 144.591 29.189V30.2321C144.591 30.5224 144.427 30.6766 144.119 30.6584C142.423 30.6131 141.071 30.1323 140.073 29.2434C139.076 28.3454 138.577 26.9575 138.577 25.0799V15.6371H136.1C135.81 15.6371 135.656 15.492 135.674 15.1926V14.2946C135.674 14.0044 135.819 13.8502 136.1 13.8502H138.577V9.27846C138.577 8.98819 138.722 8.83398 139.021 8.83398H140.083H140.064Z" fill="#031F45"/>
<path d="M68.1416 13.3331C69.7744 13.3331 71.0261 13.8411 71.9151 14.8661C72.795 15.8911 73.2394 17.2789 73.2394 18.9933V29.9781C73.2394 30.2865 73.0761 30.4498 72.7677 30.4498H71.7064C71.4253 30.4498 71.2983 30.3047 71.2983 30.0053V19.4197C71.2983 16.5624 70.0918 15.1473 67.6609 15.1473C66.4544 15.1473 65.4385 15.5555 64.6403 16.3719C63.8239 17.1882 63.3159 18.2495 63.1436 19.5557L63.0438 30.0507C63.0438 30.3319 62.8987 30.4589 62.5993 30.4589H61.5743C61.2659 30.4589 61.1026 30.3137 61.1026 30.0144L61.2024 19.2927C61.2024 16.6621 59.9325 15.1473 57.4652 15.1473C56.1953 15.1473 55.134 15.619 54.2995 16.5533C53.4468 17.4876 52.9661 18.5942 52.8119 19.8641V29.9781C52.8119 30.2865 52.6668 30.4498 52.3583 30.4498H51.3152C51.0068 30.4498 50.8435 30.2865 50.8617 29.9781V14.3128C50.8617 14.0044 51.0068 13.8411 51.3152 13.8411H52.3583C52.6668 13.8411 52.83 14.0044 52.8119 14.3128V16.8889C54.0002 14.5214 55.769 13.3513 58.1002 13.3331C60.513 13.3331 62.1458 14.5758 62.817 16.6168C63.8783 14.6121 65.7832 13.3331 68.1507 13.3331H68.1416Z" fill="#031F45"/>
<path d="M101.277 13.3694C101.785 13.3876 102.175 13.4329 102.466 13.5146C102.756 13.5599 102.856 13.7232 102.774 14.0044L102.402 15.0838C102.321 15.2834 102.157 15.365 101.912 15.3469C101.604 15.3015 101.296 15.2834 100.996 15.2834C99.2183 15.2834 97.8305 16.0635 96.8327 17.6509C95.8349 19.2292 95.3451 21.125 95.3451 23.3111V29.9872C95.3451 30.2956 95.2 30.4589 94.9188 30.4589H93.8756C93.5672 30.4589 93.4039 30.2956 93.4039 29.9872V14.3128C93.4039 14.0044 93.5672 13.8411 93.8756 13.8411H94.9188C95.209 13.8411 95.3632 14.0044 95.3451 14.3128V18.4219C96.3882 15.0566 98.3657 13.3785 101.268 13.3604L101.277 13.3694Z" fill="#031F45"/>
<path d="M106.212 4.21692C106.52 4.21692 106.684 4.38019 106.684 4.6886V23.0571L115.138 14.1132C115.346 13.9318 115.546 13.8502 115.709 13.832H117.405C117.668 13.832 117.795 14.0951 117.614 14.2765L111.02 21.1613L118.866 30.0053C119.047 30.1867 118.929 30.4498 118.666 30.4498H117.006C116.807 30.4498 116.634 30.35 116.471 30.1595L109.686 22.5763L106.684 25.7057V29.9781C106.684 30.2865 106.52 30.4498 106.212 30.4498H105.187C104.879 30.4498 104.715 30.2865 104.715 29.9781V4.6886C104.715 4.38019 104.879 4.21692 105.187 4.21692H106.212Z" fill="#031F45"/>
<path d="M82.8999 13.3059C87.3537 13.3059 89.8844 15.6099 89.8844 20.3177V30.0054C89.8844 30.2956 89.7393 30.4498 89.44 30.4498H88.3333C88.1156 30.4498 87.9886 30.3501 87.9705 30.1324V27.2025C87.3355 28.4724 86.4557 29.4248 85.3399 30.0417C84.2152 30.6766 83.0904 30.985 81.9474 30.985C80.0516 30.985 78.5187 30.4952 77.3304 29.5337C76.1421 28.5722 75.5344 27.2297 75.5344 25.5334C75.5344 23.8372 76.2056 22.4131 77.5209 21.5241C78.8452 20.6261 81.0494 20.1907 84.1154 20.1907H87.9342C87.8707 16.7801 86.2017 15.0838 82.9271 15.0838C81.2762 15.0838 79.7977 15.6734 78.4733 16.8436C78.2647 17.025 78.0651 17.0068 77.9019 16.8073L77.3122 16.136C77.1036 15.9274 77.0855 15.7279 77.276 15.5464C77.8928 14.9387 78.7273 14.4217 79.7523 13.9681C80.7773 13.5236 81.8205 13.2969 82.8817 13.2969L82.8999 13.3059ZM87.9433 21.8325H83.7707C81.1764 21.8325 79.4348 22.2407 78.6003 22.9755C77.7476 23.7102 77.4937 24.4449 77.4937 25.4699C77.4937 27.8374 79.3713 29.2071 82.3103 29.2071C84.0247 29.2071 85.3944 28.5722 86.4194 27.2841C87.4444 26.0142 87.9523 24.5266 87.9523 22.8303V21.8325H87.9433Z" fill="#031F45"/>
<path d="M127.202 13.3059C129.388 13.3059 131.248 14.1223 132.799 15.755C134.332 17.4059 135.112 19.719 135.13 22.7396C135.13 23.0843 134.967 23.2476 134.622 23.2476H120.916C121.097 24.9438 121.778 26.3498 122.984 27.4746C124.19 28.5993 125.76 29.1527 127.665 29.1527C129.297 29.1527 130.73 28.681 131.973 27.7195C132.254 27.5381 132.445 27.5743 132.581 27.783L133.116 28.5812C133.298 28.7898 133.261 29.0075 133.053 29.2162C131.583 30.4044 129.787 30.994 127.665 30.994C125.07 30.994 122.966 30.1414 121.315 28.4451C119.664 26.7489 118.839 24.6445 118.839 22.1318C118.839 19.6192 119.619 17.5148 121.188 15.8367C122.739 14.1586 124.744 13.3059 127.193 13.3059H127.202ZM127.175 15.111C125.351 15.111 123.864 15.7006 122.703 16.8707C121.542 18.059 120.907 19.6101 120.825 21.5513H133.161C133.034 19.6101 132.409 18.059 131.302 16.8707C130.177 15.6915 128.807 15.111 127.175 15.111Z" fill="#031F45"/>
<path d="M26.3976 8.49836V2.84723C26.3976 2.14877 26.9056 1.61359 27.604 1.61359L31.6315 1.56824C32.3934 1.56824 32.9468 2.0762 32.9468 2.83816V8.48022H36.4662C37.1193 8.47115 37.6636 8.98819 37.6727 9.65036V12.4714C37.6727 13.1336 37.1375 13.6597 36.4753 13.6597C36.4753 13.6597 36.4662 13.6597 36.4572 13.6597H32.9377V21.4243C32.9377 22.6217 33.2914 23.429 34.0171 23.9369C34.7065 24.4177 35.7224 24.6354 37.0831 24.6445C37.1375 24.6445 37.709 24.6445 37.7634 24.6445C38.2895 24.6445 39.0605 25.4336 39.0605 26.0232V29.4157C39.0605 29.9509 38.1988 30.7129 37.7634 30.7129C37.7362 30.7129 37.1828 30.7129 37.1556 30.7129C35.7769 30.7129 34.4797 30.5949 33.2461 30.3409C32.085 30.1051 30.9875 29.7332 29.9352 29.2071C27.731 28.1005 26.3704 25.9144 26.3704 23.0299V13.6506H24.0483C23.6764 13.6506 23.25 13.705 22.9144 13.5417C22.8056 13.7504 22.6876 13.959 22.5788 14.1676L22.225 14.8298L21.7624 15.6915L21.2182 16.7075L20.6013 17.8595L19.9392 19.1022L19.2407 20.4084L18.5241 21.7509L17.8075 23.0933L17.1091 24.3995L16.4469 25.6423L15.8391 26.7852L15.2949 27.8011L14.8414 28.6538L14.4876 29.3159L14.2517 29.7513L14.152 29.9328C13.9161 30.4226 13.5805 30.6766 13.1088 30.6766C12.6462 30.6584 12.2834 30.4226 12.0294 29.9781L0.708981 9.87713C0.264509 9.05168 0.536635 8.49836 1.45279 8.49836H6.41454C7.23999 8.49836 7.8568 8.89748 8.23778 9.70478L13.0998 20.4809L17.7894 9.65943C18.0887 8.87027 18.642 8.48929 19.4403 8.48929H26.3976V8.49836Z" fill="#031F45"/>
<path fill-rule="evenodd" clip-rule="evenodd" d="M40.784 27.7013C40.784 29.3794 39.4234 30.7401 37.7453 30.731C36.0672 30.731 34.7066 29.3704 34.7156 27.6923C34.7156 26.0142 36.0762 24.6626 37.7544 24.6626C39.4325 24.6626 40.7931 26.0232 40.7931 27.7013" fill="#00F2FF"/>
<path d="M246.356 8.17175H245.64C245.58 8.17175 245.531 8.22049 245.531 8.2806V13.0881C245.531 13.1483 245.58 13.197 245.64 13.197H246.356C246.417 13.197 246.465 13.1483 246.465 13.0881V8.2806C246.465 8.22049 246.417 8.17175 246.356 8.17175Z" fill="#031F45"/>
<path d="M252.443 13.1971H253.078C253.142 13.1971 253.187 13.1427 253.187 13.0882V8.28976C253.187 8.22626 253.132 8.18091 253.078 8.18091H252.361C252.298 8.18091 252.253 8.23533 252.253 8.28976V11.5008L250.012 8.22626C250.012 8.22626 249.958 8.18091 249.921 8.18091H249.232C249.168 8.18091 249.123 8.23533 249.123 8.28976V13.0882C249.123 13.1517 249.178 13.1971 249.232 13.1971H249.939C250.003 13.1971 250.048 13.1427 250.048 13.0882V9.80459L252.334 13.1517C252.334 13.1517 252.389 13.1971 252.425 13.1971H252.443Z" fill="#031F45"/>
<path d="M257.84 13.0882V9.04264H259.174C259.237 9.04264 259.282 8.98821 259.282 8.93379V8.28976C259.282 8.22626 259.228 8.18091 259.174 8.18091H255.482C255.418 8.18091 255.373 8.23533 255.373 8.28976V8.93379C255.373 8.99728 255.427 9.04264 255.482 9.04264H256.888V13.0882C256.888 13.1517 256.942 13.1971 256.997 13.1971H257.713C257.777 13.1971 257.822 13.1427 257.822 13.0882H257.84Z" fill="#031F45"/>
<path d="M265.641 10.6935C265.641 10.1583 265.55 9.69571 265.378 9.30567C265.197 8.91562 264.934 8.61628 264.607 8.40765C264.271 8.19902 263.881 8.09924 263.428 8.09924C262.974 8.09924 262.575 8.20809 262.249 8.40765C261.913 8.61628 261.65 8.91562 261.469 9.30567C261.287 9.68664 261.196 10.1583 261.196 10.6935C261.196 11.2287 261.287 11.6913 261.459 12.0723C261.641 12.4532 261.904 12.7526 262.24 12.9612C262.575 13.1608 262.974 13.2696 263.428 13.2696C263.881 13.2696 264.271 13.1698 264.607 12.9612C264.943 12.7526 265.197 12.4532 265.378 12.0723C265.56 11.6913 265.641 11.2287 265.641 10.7026V10.6935ZM264.634 10.7026C264.634 11.1108 264.589 11.4464 264.489 11.7094C264.389 11.9634 264.262 12.1448 264.081 12.2537C263.9 12.3716 263.682 12.426 263.428 12.426C263.174 12.426 262.956 12.3716 262.775 12.2537C262.593 12.1358 262.457 11.9544 262.357 11.7094C262.258 11.4555 262.203 11.1108 262.203 10.7026C262.203 10.2944 262.258 9.94062 262.357 9.67757C262.457 9.42359 262.602 9.2331 262.775 9.11518C262.956 8.99726 263.174 8.93376 263.428 8.93376C263.682 8.93376 263.9 8.99726 264.081 9.11518C264.262 9.2331 264.398 9.42359 264.489 9.67757C264.589 9.94062 264.643 10.2853 264.643 10.7026H264.634Z" fill="#031F45"/>
<path d="M248.878 18.5035H245.186C245.123 18.5035 245.078 18.558 245.078 18.6124V19.2564C245.078 19.3199 245.132 19.3653 245.186 19.3653H246.592V23.4018C246.592 23.4653 246.647 23.5106 246.701 23.5106H247.418C247.481 23.5106 247.527 23.4562 247.527 23.4018V19.3653H248.86C248.924 19.3653 248.969 19.3108 248.969 19.2564V18.6124C248.969 18.5489 248.914 18.5035 248.86 18.5035H248.878Z" fill="#031F45"/>
<path d="M254.294 18.7483C253.958 18.5397 253.568 18.4399 253.114 18.4399C252.661 18.4399 252.262 18.5488 251.935 18.7483C251.599 18.957 251.336 19.2563 251.155 19.6464C250.974 20.0273 250.883 20.499 250.883 21.0342C250.883 21.5694 250.974 22.032 251.146 22.413C251.327 22.7939 251.59 23.0933 251.926 23.3019C252.262 23.5105 252.661 23.6103 253.114 23.6103C253.568 23.6103 253.958 23.5105 254.294 23.3019C254.629 23.0933 254.883 22.7939 255.065 22.413C255.246 22.032 255.328 21.5694 255.328 21.0433C255.328 20.5172 255.237 20.0455 255.055 19.6554C254.874 19.2654 254.611 18.966 254.284 18.7574L254.294 18.7483ZM253.114 22.7577C252.86 22.7577 252.643 22.7032 252.461 22.5853C252.28 22.4674 252.144 22.286 252.044 22.0411C251.944 21.7871 251.89 21.4424 251.89 21.0342C251.89 20.626 251.944 20.2723 252.044 20.0092C252.144 19.7552 252.289 19.5647 252.461 19.4468C252.643 19.3289 252.86 19.2654 253.114 19.2654C253.368 19.2654 253.586 19.3289 253.767 19.4468C253.949 19.5647 254.085 19.7552 254.176 20.0092C254.275 20.2723 254.33 20.6169 254.33 21.0433C254.33 21.4696 254.284 21.7871 254.185 22.0501C254.094 22.295 253.949 22.4855 253.776 22.5944C253.595 22.7123 253.377 22.7667 253.123 22.7667L253.114 22.7577Z" fill="#031F45"/>
<path d="M262.557 18.5035H261.559C261.514 18.5035 261.469 18.5308 261.45 18.5761L260.19 22.0956L258.947 18.5761C258.929 18.5308 258.883 18.5035 258.838 18.5035H257.831C257.768 18.5035 257.722 18.558 257.722 18.6124V23.4109C257.722 23.4744 257.777 23.5197 257.831 23.5197H258.557C258.62 23.5197 258.666 23.4653 258.666 23.4109V20.2905L259.763 23.4471C259.781 23.4925 259.827 23.5197 259.872 23.5197H260.489C260.534 23.5197 260.58 23.4925 260.598 23.4471L261.704 20.2633V23.4109C261.704 23.4744 261.759 23.5197 261.813 23.5197H262.539C262.602 23.5197 262.648 23.4653 262.648 23.4109V18.6124C262.648 18.5489 262.593 18.5035 262.539 18.5035H262.557Z" fill="#031F45"/>
<path d="M268.471 18.7483C268.136 18.5397 267.746 18.4399 267.292 18.4399C266.838 18.4399 266.439 18.5488 266.113 18.7483C265.777 18.957 265.514 19.2563 265.333 19.6464C265.151 20.0273 265.061 20.499 265.061 21.0342C265.061 21.5694 265.151 22.032 265.324 22.413C265.505 22.7939 265.768 23.0933 266.104 23.3019C266.439 23.5105 266.838 23.6103 267.292 23.6103C267.746 23.6103 268.136 23.5105 268.471 23.3019C268.807 23.0933 269.061 22.7939 269.242 22.413C269.424 22.032 269.505 21.5694 269.505 21.0433C269.505 20.5172 269.415 20.0455 269.233 19.6554C269.052 19.2654 268.798 18.966 268.462 18.7574L268.471 18.7483ZM268.508 21.0342C268.508 21.4424 268.462 21.778 268.362 22.0411C268.272 22.286 268.127 22.4765 267.954 22.5853C267.773 22.7032 267.555 22.7577 267.301 22.7577C267.047 22.7577 266.829 22.7032 266.648 22.5853C266.467 22.4674 266.331 22.286 266.231 22.0411C266.131 21.7871 266.077 21.4424 266.077 21.0342C266.077 20.626 266.131 20.2723 266.231 20.0092C266.331 19.7552 266.476 19.5647 266.648 19.4468C266.829 19.3289 267.047 19.2654 267.301 19.2654C267.555 19.2654 267.773 19.3289 267.954 19.4468C268.136 19.5647 268.272 19.7552 268.362 20.0092C268.462 20.2723 268.517 20.6169 268.517 21.0342H268.508Z" fill="#031F45"/>
<path d="M275.102 21.1159C275.256 20.9979 275.374 20.8437 275.474 20.6532C275.574 20.4628 275.619 20.2269 275.619 19.9548C275.619 19.6645 275.556 19.4015 275.429 19.1838C275.302 18.9661 275.111 18.7937 274.857 18.6667C274.612 18.5488 274.295 18.4944 273.923 18.4944H272.018C271.954 18.4944 271.909 18.5488 271.909 18.6032V23.4017C271.909 23.4652 271.963 23.5106 272.018 23.5106H272.725C272.789 23.5106 272.834 23.4561 272.834 23.4017V21.5059H273.85L274.676 23.4471C274.676 23.4471 274.739 23.5196 274.785 23.5196H275.528C275.528 23.5196 275.601 23.5015 275.619 23.4652C275.637 23.4289 275.646 23.3926 275.619 23.3564L274.739 21.3245C274.866 21.261 274.984 21.1884 275.093 21.0977L275.102 21.1159ZM274.667 19.9911C274.667 20.2269 274.594 20.3993 274.431 20.5263C274.267 20.6532 274.032 20.7167 273.723 20.7167H272.834V19.2926H273.85C274.104 19.2926 274.313 19.3561 274.458 19.474C274.603 19.592 274.667 19.7552 274.667 19.9911Z" fill="#031F45"/>
<path d="M281.288 21.1159C281.443 20.9979 281.56 20.8437 281.66 20.6532C281.76 20.4628 281.805 20.2269 281.805 19.9548C281.805 19.6645 281.742 19.4015 281.615 19.1838C281.488 18.9661 281.297 18.7937 281.043 18.6667C280.799 18.5488 280.481 18.4944 280.109 18.4944H278.204C278.141 18.4944 278.095 18.5488 278.095 18.6032V23.4017C278.095 23.4652 278.15 23.5106 278.204 23.5106H278.912C278.975 23.5106 279.021 23.4561 279.021 23.4017V21.5059H280.037L280.862 23.4471C280.862 23.4471 280.926 23.5196 280.971 23.5196H281.715C281.715 23.5196 281.787 23.5015 281.805 23.4652C281.824 23.4289 281.833 23.3926 281.805 23.3564L280.925 21.3245C281.052 21.261 281.17 21.1884 281.279 21.0977L281.288 21.1159ZM280.853 19.9911C280.853 20.2269 280.78 20.3993 280.617 20.5263C280.454 20.6532 280.218 20.7167 279.91 20.7167H279.021V19.2926H280.037C280.291 19.2926 280.499 19.3561 280.644 19.474C280.789 19.592 280.853 19.7552 280.853 19.9911Z" fill="#031F45"/>
<path d="M287.348 18.7483C287.012 18.5397 286.622 18.4399 286.168 18.4399C285.715 18.4399 285.316 18.5488 284.989 18.7483C284.654 18.957 284.39 19.2563 284.209 19.6464C284.028 20.0273 283.937 20.499 283.937 21.0342C283.937 21.5694 284.028 22.032 284.209 22.413C284.39 22.7939 284.654 23.0933 284.989 23.3019C285.325 23.5015 285.724 23.6103 286.177 23.6103C286.631 23.6103 287.021 23.5105 287.357 23.3019C287.692 23.0933 287.946 22.7939 288.128 22.413C288.309 22.032 288.391 21.5694 288.391 21.0433C288.391 20.5172 288.3 20.0455 288.119 19.6554C287.937 19.2654 287.674 18.966 287.348 18.7574V18.7483ZM287.384 21.0342C287.384 21.4424 287.329 21.778 287.23 22.0411C287.139 22.286 287.003 22.4765 286.821 22.5853C286.64 22.7032 286.422 22.7577 286.168 22.7577C285.914 22.7577 285.697 22.7032 285.515 22.5853C285.334 22.4674 285.198 22.286 285.098 22.0411C284.998 21.7871 284.944 21.4424 284.944 21.0342C284.944 20.626 284.998 20.2723 285.098 20.0092C285.198 19.7552 285.343 19.5647 285.515 19.4468C285.697 19.3289 285.914 19.2654 286.168 19.2654C286.422 19.2654 286.64 19.3289 286.821 19.4468C287.003 19.5647 287.139 19.7552 287.23 20.0092C287.329 20.2723 287.384 20.6169 287.384 21.0433V21.0342Z" fill="#031F45"/>
<path d="M296.464 18.5489C296.464 18.5489 296.409 18.5035 296.373 18.5035H295.666C295.611 18.5035 295.566 18.5398 295.557 18.5852L294.641 21.8416L293.724 18.5852C293.715 18.5398 293.67 18.5035 293.616 18.5035H293.071C293.017 18.5035 292.972 18.5398 292.963 18.5852L292.046 21.8416L291.139 18.5852C291.13 18.5398 291.085 18.5035 291.03 18.5035H290.323C290.323 18.5035 290.25 18.5217 290.232 18.5489C290.214 18.5761 290.205 18.6124 290.214 18.6487L291.602 23.4471C291.62 23.4925 291.656 23.5288 291.711 23.5288H292.318C292.373 23.5288 292.409 23.4925 292.427 23.4471L293.343 20.2633L294.251 23.4471C294.269 23.4925 294.305 23.5288 294.359 23.5288H294.985C295.04 23.5288 295.076 23.4925 295.094 23.4471L296.5 18.6487C296.5 18.6487 296.5 18.5761 296.482 18.5489H296.464Z" fill="#031F45"/>
<path d="M210.282 6.12181V1.59546H204.73C204.64 1.70431 204.54 1.81316 204.44 1.92201C202.998 3.51848 200.376 4.80654 200.376 4.80654V9.68665C201.211 9.68665 204.467 8.32602 205.411 7.67292V30.4861H210.291V25.8781C208.223 23.1296 206.989 19.7099 206.989 16C206.989 12.29 208.214 8.87027 210.291 6.12181H210.282Z" fill="#031F45"/>
<path d="M223.416 0.942383C217.774 0.942383 212.858 4.04461 210.282 8.64353C209.057 10.8205 208.359 13.3332 208.359 16C208.359 18.6668 209.057 21.1794 210.282 23.3564C212.858 27.9463 217.774 31.0576 223.416 31.0576C231.734 31.0576 238.474 24.3179 238.474 16C238.474 7.68202 231.734 0.942383 223.416 0.942383ZM223.416 25.9416C217.928 25.9416 213.475 21.4878 213.475 16C213.475 10.5121 217.928 6.05834 223.416 6.05834C228.904 6.05834 233.358 10.5121 233.358 16C233.358 21.4878 228.904 25.9416 223.416 25.9416Z" fill="#031F45"/>
</svg>
